<?xml version="1.0" encoding="UTF-8"?>
<svg xmlns="http://www.w3.org/2000/svg" xmlns:xlink="http://www.w3.org/1999/xlink" width="75pt" height="74.999997pt" viewBox="0 0 75 74.999997" version="1.2">
<defs>
<clipPath id="clip1">
  <path d="M 0 0.328125 L 75 0.328125 L 75 3 L 0 3 Z M 0 0.328125 "/>
</clipPath>
</defs>
<g id="surface1">
<path style=" stroke:none;fill-rule:nonzero;fill:rgb(65.489197%,9.799194%,46.269226%);fill-opacity:1;" d="M 73.074219 12.75 L 57.160156 20.25 L 17.898438 20.25 L 1.980469 12.75 C 1.402344 12.457031 0.703125 12.75 0.414062 13.335938 C 0.125 13.921875 0.414062 14.625 0.996094 14.917969 L 17.082031 22.535156 C 17.257812 22.59375 17.433594 22.652344 17.546875 22.652344 L 57.335938 22.652344 C 57.507812 22.652344 57.683594 22.59375 57.800781 22.535156 L 73.890625 14.917969 C 74.46875 14.625 74.703125 13.921875 74.46875 13.335938 C 74.296875 12.75 73.65625 12.457031 73.074219 12.75 Z M 73.074219 12.75 "/>
<path style=" stroke:none;fill-rule:nonzero;fill:rgb(65.489197%,9.799194%,46.269226%);fill-opacity:1;" d="M 51.46875 31.96875 L 23.589844 31.96875 C 22.949219 31.96875 22.425781 32.496094 22.425781 33.140625 L 22.425781 55.40625 C 22.425781 56.050781 22.949219 56.578125 23.589844 56.578125 L 51.46875 56.578125 C 52.109375 56.578125 52.628906 56.050781 52.628906 55.40625 L 52.628906 33.140625 C 52.628906 32.496094 52.109375 31.96875 51.46875 31.96875 Z M 50.308594 54.234375 L 24.75 54.234375 L 24.75 34.3125 L 27.074219 34.3125 L 27.074219 43.6875 C 27.074219 44.332031 27.597656 44.859375 28.234375 44.859375 C 28.875 44.859375 29.398438 44.332031 29.398438 43.6875 L 29.398438 34.3125 L 31.722656 34.3125 L 31.722656 50.71875 C 31.722656 51.363281 32.242188 51.890625 32.882812 51.890625 C 33.519531 51.890625 34.042969 51.363281 34.042969 50.71875 L 34.042969 34.3125 L 41.015625 34.3125 L 41.015625 50.71875 C 41.015625 51.363281 41.535156 51.890625 42.175781 51.890625 C 42.816406 51.890625 43.335938 51.363281 43.335938 50.71875 L 43.335938 34.3125 L 45.660156 34.3125 L 45.660156 43.6875 C 45.660156 44.332031 46.183594 44.859375 46.824219 44.859375 C 47.460938 44.859375 47.984375 44.332031 47.984375 43.6875 L 47.984375 34.3125 L 50.308594 34.3125 Z M 50.308594 54.234375 "/>
<path style=" stroke:none;fill-rule:nonzero;fill:rgb(65.489197%,9.799194%,46.269226%);fill-opacity:1;" d="M 73.539062 5.015625 L 1.515625 5.015625 C 0.878906 5.015625 0.355469 5.542969 0.355469 6.1875 C 0.355469 6.832031 0.878906 7.359375 1.515625 7.359375 L 73.539062 7.359375 C 74.179688 7.359375 74.703125 6.832031 74.703125 6.1875 C 74.703125 5.542969 74.179688 5.015625 73.539062 5.015625 Z M 73.539062 5.015625 "/>
<g clip-path="url(#clip1)" clip-rule="nonzero">
<path style=" stroke:none;fill-rule:nonzero;fill:rgb(65.489197%,9.799194%,46.269226%);fill-opacity:1;" d="M 1.515625 2.671875 L 73.539062 2.671875 C 74.179688 2.671875 74.703125 2.144531 74.703125 1.5 C 74.703125 0.855469 74.179688 0.328125 73.539062 0.328125 L 1.515625 0.328125 C 0.878906 0.328125 0.355469 0.855469 0.355469 1.5 C 0.355469 2.144531 0.878906 2.671875 1.515625 2.671875 Z M 1.515625 2.671875 "/>
</g>
<path style=" stroke:none;fill-rule:nonzero;fill:rgb(65.489197%,9.799194%,46.269226%);fill-opacity:1;" d="M 37.527344 17.90625 C 41.480469 17.90625 45.253906 17.730469 48.101562 17.378906 C 50.714844 17.027344 54.375 16.617188 54.375 13.804688 C 54.375 10.992188 50.714844 10.582031 48.101562 10.230469 C 45.253906 9.878906 41.480469 9.703125 37.527344 9.703125 C 33.578125 9.703125 29.804688 9.878906 26.957031 10.230469 C 24.34375 10.582031 20.683594 10.992188 20.683594 13.804688 C 20.683594 16.617188 24.34375 17.027344 26.957031 17.378906 C 29.804688 17.730469 33.578125 17.90625 37.527344 17.90625 Z M 23.007812 13.804688 C 23.007812 12.808594 29.511719 12.046875 37.527344 12.046875 C 45.542969 12.046875 52.050781 12.808594 52.050781 13.804688 C 52.050781 14.800781 45.542969 15.5625 37.527344 15.5625 C 29.511719 15.5625 23.007812 14.800781 23.007812 13.804688 Z M 23.007812 13.804688 "/>
<path style=" stroke:none;fill-rule:nonzero;fill:rgb(65.489197%,9.799194%,46.269226%);fill-opacity:1;" d="M 74.003906 20.132812 C 74.585938 19.839844 74.820312 19.136719 74.585938 18.550781 C 74.296875 17.964844 73.65625 17.730469 73.019531 17.964844 L 58.207031 24.9375 L 16.851562 24.9375 L 1.980469 18.023438 C 1.402344 17.730469 0.703125 18.023438 0.414062 18.609375 C 0.125 19.195312 0.414062 19.898438 0.996094 20.191406 L 15.457031 26.871094 L 15.457031 61.851562 L 0.820312 73.21875 C 0.296875 73.628906 0.238281 74.332031 0.589844 74.859375 C 0.820312 75.152344 1.167969 75.328125 1.515625 75.328125 C 1.75 75.328125 2.039062 75.269531 2.214844 75.09375 L 17.027344 63.609375 L 58.03125 63.609375 L 72.84375 75.09375 C 73.074219 75.269531 73.308594 75.328125 73.539062 75.328125 C 73.890625 75.328125 74.238281 75.152344 74.46875 74.859375 C 74.875 74.332031 74.761719 73.628906 74.238281 73.21875 L 59.601562 61.851562 L 59.601562 26.871094 Z M 17.78125 27.28125 L 57.277344 27.28125 L 57.277344 61.265625 L 17.78125 61.265625 Z M 17.78125 27.28125 "/>
</g>
</svg>
