<?xml version="1.0" encoding="UTF-8"?>
<svg xmlns="http://www.w3.org/2000/svg" xmlns:xlink="http://www.w3.org/1999/xlink" width="75pt" height="74.999997pt" viewBox="0 0 75 74.999997" version="1.2">
<defs>
<clipPath id="clip1">
  <path d="M 0 1.734375 L 75 1.734375 L 75 72.984375 L 0 72.984375 Z M 0 1.734375 "/>
</clipPath>
</defs>
<g id="surface1">
<g clip-path="url(#clip1)" clip-rule="nonzero">
<path style=" stroke:none;fill-rule:nonzero;fill:rgb(65.489197%,9.799194%,46.269226%);fill-opacity:1;" d="M 37.5 13.757812 L 7.089844 32.5 L 2.84375 25.65625 L 37.5 4.289062 L 72.164062 25.65625 L 67.910156 32.5 Z M 63.273438 70.757812 L 36.1875 70.757812 L 36.1875 33.371094 L 18.714844 33.371094 L 18.714844 70.757812 L 11.726562 70.757812 L 11.726562 32.0625 L 37.5 16.171875 L 63.273438 32.0625 Z M 20.78125 59.699219 L 25.0625 59.699219 L 25.0625 46.363281 L 20.78125 46.363281 L 20.78125 35.425781 L 34.125 35.425781 L 34.125 70.757812 L 20.78125 70.757812 Z M 20.78125 48.417969 L 22.996094 48.417969 L 22.996094 57.652344 L 20.78125 57.652344 Z M 54.8125 6.246094 L 63.273438 6.246094 L 63.273438 17.765625 L 54.8125 12.546875 Z M 75 24.996094 L 65.339844 19.039062 L 65.339844 4.1875 L 52.746094 4.1875 L 52.746094 11.273438 L 37.5 1.875 L 0 24.996094 L 6.425781 35.332031 L 9.660156 33.335938 L 9.660156 72.8125 L 65.339844 72.8125 L 65.339844 33.335938 L 68.574219 35.332031 L 75 24.996094 "/>
</g>
<path style=" stroke:none;fill-rule:nonzero;fill:rgb(65.489197%,9.799194%,46.269226%);fill-opacity:1;" d="M 49.652344 62.128906 L 49.652344 49.804688 L 53.867188 49.804688 L 53.867188 62.128906 Z M 43.367188 49.804688 L 47.585938 49.804688 L 47.585938 62.128906 L 43.367188 62.128906 Z M 47.585938 35.425781 L 47.585938 47.75 L 43.367188 47.75 L 43.367188 35.425781 Z M 53.867188 47.75 L 49.652344 47.75 L 49.652344 35.425781 L 53.867188 35.425781 Z M 55.929688 33.371094 L 41.300781 33.371094 L 41.300781 64.183594 L 55.929688 64.183594 L 55.929688 33.371094 "/>
</g>
</svg>
