<?xml version="1.0" encoding="UTF-8"?>
<svg xmlns="http://www.w3.org/2000/svg" xmlns:xlink="http://www.w3.org/1999/xlink" width="112.5pt" height="112.499997pt" viewBox="0 0 112.5 112.499997" version="1.2">
<defs>
<clipPath id="clip1">
  <path d="M 2 41.289062 L 111 41.289062 L 111 60.039062 L 2 60.039062 Z M 2 41.289062 "/>
</clipPath>
</defs>
<g id="surface1">
<g clip-path="url(#clip1)" clip-rule="nonzero">
<path style=" stroke:none;fill-rule:nonzero;fill:rgb(0%,0%,0%);fill-opacity:1;" d="M 12.296875 41.289062 C 11.679688 41.277344 11.0625 41.332031 10.453125 41.445312 C 9.84375 41.558594 9.253906 41.730469 8.679688 41.964844 C 8.101562 42.195312 7.554688 42.484375 7.039062 42.824219 C 6.519531 43.167969 6.039062 43.554688 5.597656 43.992188 C 5.15625 44.429688 4.765625 44.90625 4.417969 45.421875 C 4.070312 45.9375 3.777344 46.484375 3.539062 47.058594 C 3.296875 47.632812 3.117188 48.226562 2.996094 48.835938 C 2.875 49.445312 2.8125 50.0625 2.8125 50.6875 C 2.8125 51.308594 2.875 51.925781 2.996094 52.535156 C 3.117188 53.148438 3.296875 53.738281 3.539062 54.3125 C 3.777344 54.886719 4.070312 55.433594 4.417969 55.949219 C 4.765625 56.464844 5.15625 56.941406 5.597656 57.378906 C 6.039062 57.816406 6.519531 58.207031 7.039062 58.546875 C 7.554688 58.886719 8.101562 59.175781 8.679688 59.40625 C 9.253906 59.640625 9.84375 59.8125 10.453125 59.925781 C 11.0625 60.039062 11.679688 60.09375 12.296875 60.085938 L 101.136719 60.085938 C 101.757812 60.09375 102.371094 60.039062 102.980469 59.925781 C 103.589844 59.8125 104.183594 59.640625 104.757812 59.40625 C 105.332031 59.175781 105.878906 58.886719 106.398438 58.546875 C 106.914062 58.207031 107.394531 57.816406 107.835938 57.378906 C 108.277344 56.941406 108.671875 56.464844 109.019531 55.949219 C 109.367188 55.433594 109.660156 54.886719 109.898438 54.3125 C 110.136719 53.738281 110.316406 53.148438 110.4375 52.535156 C 110.5625 51.925781 110.621094 51.308594 110.621094 50.6875 C 110.621094 50.0625 110.5625 49.445312 110.4375 48.835938 C 110.316406 48.226562 110.136719 47.632812 109.898438 47.058594 C 109.660156 46.484375 109.367188 45.9375 109.019531 45.421875 C 108.671875 44.90625 108.277344 44.429688 107.835938 43.992188 C 107.394531 43.554688 106.914062 43.167969 106.398438 42.824219 C 105.878906 42.484375 105.332031 42.195312 104.757812 41.964844 C 104.183594 41.730469 103.589844 41.558594 102.980469 41.445312 C 102.371094 41.332031 101.757812 41.277344 101.136719 41.289062 Z M 12.296875 41.289062 "/>
</g>
</g>
</svg>
