<?xml version="1.0" encoding="UTF-8"?>
<svg xmlns="http://www.w3.org/2000/svg" xmlns:xlink="http://www.w3.org/1999/xlink" width="112.5pt" height="112.499997pt" viewBox="0 0 112.5 112.499997" version="1.2">
<defs>
<clipPath id="clip1">
  <path d="M 1 23 L 111.769531 23 L 111.769531 102.75 L 1 102.75 Z M 1 23 "/>
</clipPath>
<clipPath id="clip2">
  <path d="M 36 11.25 L 76 11.25 L 76 56 L 36 56 Z M 36 11.25 "/>
</clipPath>
</defs>
<g id="surface1">
<g clip-path="url(#clip1)" clip-rule="nonzero">
<path style=" stroke:none;fill-rule:nonzero;fill:rgb(65.489197%,9.799194%,46.269226%);fill-opacity:1;" d="M 98.449219 102.621094 L 14.089844 102.621094 C 7 102.621094 1.230469 96.839844 1.230469 89.734375 L 1.230469 35.953125 C 1.230469 28.847656 7 23.066406 14.089844 23.066406 L 38.816406 23.066406 C 39.796875 23.066406 40.59375 23.867188 40.59375 24.851562 C 40.59375 25.835938 39.796875 26.632812 38.816406 26.632812 L 14.089844 26.632812 C 8.964844 26.632812 4.792969 30.816406 4.792969 35.953125 L 4.792969 89.734375 C 4.792969 94.871094 8.964844 99.050781 14.089844 99.050781 L 98.449219 99.050781 C 103.578125 99.050781 107.75 94.871094 107.75 89.734375 L 107.75 35.953125 C 107.75 30.816406 103.578125 26.632812 98.449219 26.632812 L 73.863281 26.632812 C 72.878906 26.632812 72.082031 25.835938 72.082031 24.851562 C 72.082031 23.867188 72.878906 23.066406 73.863281 23.066406 L 98.449219 23.066406 C 105.539062 23.066406 111.308594 28.847656 111.308594 35.953125 L 111.308594 89.734375 C 111.304688 96.839844 105.539062 102.621094 98.449219 102.621094 Z M 98.449219 102.621094 "/>
</g>
<path style=" stroke:none;fill-rule:nonzero;fill:rgb(65.489197%,9.799194%,46.269226%);fill-opacity:1;" d="M 56.269531 83.902344 C 55.769531 83.902344 55.292969 83.691406 54.953125 83.320312 L 5.425781 28.875 C 4.761719 28.144531 4.816406 27.015625 5.542969 26.355469 C 6.269531 25.691406 7.394531 25.742188 8.054688 26.46875 L 56.269531 79.46875 L 104.46875 26.445312 C 105.128906 25.71875 106.253906 25.664062 106.984375 26.328125 C 107.710938 26.992188 107.761719 28.121094 107.101562 28.847656 L 57.585938 83.320312 C 57.246094 83.691406 56.769531 83.902344 56.269531 83.902344 Z M 56.269531 83.902344 "/>
<path style=" stroke:none;fill-rule:nonzero;fill:rgb(65.489197%,9.799194%,46.269226%);fill-opacity:1;" d="M 7.898438 100.707031 C 7.429688 100.707031 6.960938 100.523438 6.609375 100.15625 C 5.929688 99.441406 5.957031 98.3125 6.667969 97.632812 L 40.730469 65.09375 C 41.4375 64.410156 42.566406 64.4375 43.246094 65.152344 C 43.925781 65.863281 43.898438 66.992188 43.1875 67.671875 L 9.125 100.214844 C 8.78125 100.542969 8.339844 100.707031 7.898438 100.707031 Z M 7.898438 100.707031 "/>
<path style=" stroke:none;fill-rule:nonzero;fill:rgb(65.489197%,9.799194%,46.269226%);fill-opacity:1;" d="M 106.097656 99.53125 C 105.65625 99.53125 105.21875 99.371094 104.875 99.046875 L 70.449219 66.476562 C 69.738281 65.800781 69.703125 64.671875 70.378906 63.957031 C 71.050781 63.242188 72.179688 63.207031 72.894531 63.882812 L 107.316406 96.453125 C 108.03125 97.128906 108.066406 98.257812 107.390625 98.972656 C 107.039062 99.34375 106.570312 99.53125 106.097656 99.53125 Z M 106.097656 99.53125 "/>
<g clip-path="url(#clip2)" clip-rule="nonzero">
<path style=" stroke:none;fill-rule:nonzero;fill:rgb(65.489197%,9.799194%,46.269226%);fill-opacity:1;" d="M 63.75 23.125 L 60.464844 23.125 L 60.480469 25.925781 C 59.550781 23.878906 57.554688 22.582031 54.648438 22.582031 C 49.703125 22.582031 46.605469 26.355469 46.640625 32.234375 L 46.65625 34.339844 C 46.699219 40.484375 49.789062 43.992188 54.84375 43.992188 C 57.96875 43.992188 60.328125 42.375 61.546875 39.890625 C 62.316406 42.261719 64.207031 43.664062 66.953125 43.664062 C 71.46875 43.664062 75.105469 39.515625 75.050781 30.886719 C 74.972656 19.449219 67.707031 11.203125 56.40625 11.203125 C 43.863281 11.203125 36.074219 20.261719 36.160156 33.257812 C 36.25 47.601562 44.375 55.375 56.804688 55.375 C 62.1875 55.375 66.648438 54.234375 70.292969 52.183594 L 70.265625 48.410156 C 66.246094 50.730469 61.734375 51.863281 56.78125 51.863281 C 47.097656 51.863281 40.058594 45.878906 39.980469 33.257812 C 39.898438 22.148438 45.773438 14.710938 56.425781 14.710938 C 65.949219 14.710938 71.269531 21.558594 71.332031 30.9375 C 71.375 37.679688 69.402344 40.054688 66.921875 40.054688 C 65.097656 40.054688 63.847656 38.8125 63.828125 35.683594 Z M 60.054688 34.011719 C 60.082031 38.277344 58.265625 40.539062 55.304688 40.539062 C 52.347656 40.539062 50.5 38.328125 50.472656 34.121094 L 50.460938 32.449219 C 50.441406 28.296875 52.195312 26.035156 55.214844 26.035156 C 58.28125 26.035156 60.015625 28.460938 60.042969 32.609375 Z M 60.054688 34.011719 "/>
</g>
</g>
</svg>
