<?xml version="1.0" encoding="UTF-8"?>
<svg xmlns="http://www.w3.org/2000/svg" xmlns:xlink="http://www.w3.org/1999/xlink" width="112.5pt" height="112.499997pt" viewBox="0 0 112.5 112.499997" version="1.2">
<defs>
<clipPath id="clip1">
  <path d="M 1.539062 22 L 111 22 L 111 101.25 L 1.539062 101.25 Z M 1.539062 22 "/>
</clipPath>
<clipPath id="clip2">
  <path d="M 36 11.25 L 75 11.25 L 75 55 L 36 55 Z M 36 11.25 "/>
</clipPath>
</defs>
<g id="surface1">
<g clip-path="url(#clip1)" clip-rule="nonzero">
<path style=" stroke:none;fill-rule:nonzero;fill:rgb(64.709473%,10.5896%,46.669006%);fill-opacity:1;" d="M 97.898438 101.121094 L 14.679688 101.121094 C 7.6875 101.121094 1.996094 95.4375 1.996094 88.445312 L 1.996094 35.550781 C 1.996094 28.558594 7.6875 22.871094 14.679688 22.871094 L 39.070312 22.871094 C 40.039062 22.871094 40.828125 23.660156 40.828125 24.628906 C 40.828125 25.59375 40.039062 26.382812 39.070312 26.382812 L 14.679688 26.382812 C 9.625 26.382812 5.507812 30.492188 5.507812 35.550781 L 5.507812 88.445312 C 5.507812 93.5 9.625 97.613281 14.679688 97.613281 L 97.898438 97.613281 C 102.957031 97.613281 107.070312 93.5 107.070312 88.445312 L 107.070312 35.550781 C 107.070312 30.496094 102.957031 26.382812 97.898438 26.382812 L 73.644531 26.382812 C 72.675781 26.382812 71.886719 25.59375 71.886719 24.628906 C 71.886719 23.660156 72.675781 22.871094 73.644531 22.871094 L 97.898438 22.871094 C 104.890625 22.871094 110.582031 28.558594 110.582031 35.550781 L 110.582031 88.445312 C 110.582031 95.4375 104.890625 101.121094 97.898438 101.121094 Z M 97.898438 101.121094 "/>
</g>
<path style=" stroke:none;fill-rule:nonzero;fill:rgb(64.709473%,10.5896%,46.669006%);fill-opacity:1;" d="M 56.289062 82.710938 C 55.796875 82.710938 55.324219 82.503906 54.992188 82.140625 L 6.132812 28.585938 C 5.480469 27.871094 5.53125 26.757812 6.246094 26.105469 C 6.964844 25.453125 8.074219 25.507812 8.730469 26.21875 L 56.285156 78.351562 L 103.835938 26.199219 C 104.484375 25.480469 105.597656 25.429688 106.316406 26.082031 C 107.03125 26.734375 107.085938 27.84375 106.429688 28.558594 L 57.589844 82.136719 C 57.253906 82.503906 56.78125 82.710938 56.289062 82.710938 Z M 56.289062 82.710938 "/>
<path style=" stroke:none;fill-rule:nonzero;fill:rgb(64.709473%,10.5896%,46.669006%);fill-opacity:1;" d="M 8.574219 99.242188 C 8.109375 99.242188 7.648438 99.058594 7.300781 98.699219 C 6.632812 97.996094 6.660156 96.886719 7.359375 96.214844 L 40.960938 64.210938 C 41.660156 63.539062 42.773438 63.566406 43.441406 64.265625 C 44.109375 64.96875 44.085938 66.078125 43.382812 66.75 L 9.785156 98.753906 C 9.441406 99.078125 9.007812 99.242188 8.574219 99.242188 Z M 8.574219 99.242188 "/>
<path style=" stroke:none;fill-rule:nonzero;fill:rgb(64.709473%,10.5896%,46.669006%);fill-opacity:1;" d="M 105.441406 98.085938 C 105.007812 98.085938 104.574219 97.925781 104.234375 97.609375 L 70.277344 65.574219 C 69.574219 64.90625 69.539062 63.796875 70.207031 63.09375 C 70.871094 62.386719 71.984375 62.355469 72.6875 63.019531 L 106.644531 95.054688 C 107.351562 95.722656 107.382812 96.832031 106.71875 97.535156 C 106.371094 97.902344 105.910156 98.085938 105.441406 98.085938 Z M 105.441406 98.085938 "/>
<g clip-path="url(#clip2)" clip-rule="nonzero">
<path style=" stroke:none;fill-rule:nonzero;fill:rgb(64.709473%,10.5896%,46.669006%);fill-opacity:1;" d="M 63.667969 22.929688 L 60.429688 22.929688 L 60.441406 25.6875 C 59.527344 23.671875 57.554688 22.398438 54.691406 22.398438 C 49.808594 22.398438 46.753906 26.105469 46.789062 31.886719 L 46.804688 33.960938 C 46.847656 40.003906 49.894531 43.457031 54.882812 43.457031 C 57.964844 43.457031 60.292969 41.867188 61.496094 39.421875 C 62.253906 41.753906 64.117188 43.132812 66.828125 43.132812 C 71.285156 43.132812 74.871094 39.050781 74.816406 30.566406 C 74.738281 19.316406 67.570312 11.203125 56.425781 11.203125 C 44.050781 11.203125 36.367188 20.113281 36.449219 32.898438 C 36.542969 47.003906 44.558594 54.648438 56.816406 54.648438 C 62.128906 54.648438 66.527344 53.53125 70.121094 51.511719 L 70.09375 47.800781 C 66.128906 50.085938 61.679688 51.199219 56.792969 51.199219 C 47.242188 51.199219 40.296875 45.308594 40.222656 32.898438 C 40.140625 21.96875 45.933594 14.652344 56.441406 14.652344 C 65.839844 14.652344 71.085938 21.386719 71.148438 30.613281 C 71.1875 37.246094 69.242188 39.582031 66.796875 39.582031 C 64.996094 39.582031 63.765625 38.359375 63.742188 35.285156 Z M 60.019531 33.640625 C 60.050781 37.835938 58.257812 40.058594 55.335938 40.058594 C 52.421875 40.058594 50.597656 37.882812 50.570312 33.746094 L 50.558594 32.101562 C 50.539062 28.019531 52.269531 25.792969 55.246094 25.792969 C 58.273438 25.792969 59.984375 28.179688 60.011719 32.261719 Z M 60.019531 33.640625 "/>
</g>
</g>
</svg>
