<?xml version="1.0" encoding="UTF-8"?>
<svg xmlns="http://www.w3.org/2000/svg" xmlns:xlink="http://www.w3.org/1999/xlink" width="75pt" height="74.999997pt" viewBox="0 0 75 74.999997" version="1.2">
<defs>
<clipPath id="clip1">
  <path d="M 0.707031 4.25 L 74.125 4.25 L 74.125 71 L 0.707031 71 Z M 0.707031 4.25 "/>
</clipPath>
</defs>
<g id="surface1">
<g clip-path="url(#clip1)" clip-rule="nonzero">
<path style=" stroke:none;fill-rule:nonzero;fill:rgb(6.269836%,5.879211%,5.488586%);fill-opacity:1;" d="M 61.984375 6.6875 L 62.25 6.03125 C 59.152344 4.757812 56.265625 4.242188 53.636719 4.242188 C 51.007812 4.242188 48.640625 4.757812 46.578125 5.527344 C 43.484375 6.679688 41.070312 8.402344 39.421875 9.839844 C 37.777344 11.277344 36.894531 12.425781 36.875 12.453125 L 37.429688 12.886719 L 37.988281 12.453125 C 37.957031 12.417969 36.402344 10.382812 33.539062 8.339844 C 32.105469 7.320312 30.34375 6.292969 28.28125 5.527344 C 26.21875 4.757812 23.851562 4.242188 21.226562 4.242188 C 18.597656 4.242188 15.707031 4.757812 12.609375 6.03125 L 12.582031 6.042969 C 12.53125 6.066406 9.613281 7.4375 6.667969 10.433594 C 5.199219 11.929688 3.71875 13.835938 2.609375 16.191406 C 1.5 18.542969 0.757812 21.34375 0.757812 24.589844 C 0.757812 27.667969 1.421875 31.148438 3.042969 35.03125 C 4.660156 38.917969 7.234375 43.214844 11.050781 47.953125 L 11.070312 47.976562 C 11.078125 47.988281 14.03125 51.355469 18.75 55.929688 C 23.472656 60.5 29.953125 66.273438 37.039062 71.085938 C 37.277344 71.25 37.585938 71.25 37.824219 71.085938 C 44.90625 66.273438 51.390625 60.5 56.109375 55.929688 C 60.828125 51.355469 63.78125 47.988281 63.789062 47.976562 L 63.808594 47.953125 C 67.625 43.214844 70.199219 38.917969 71.820312 35.03125 C 73.4375 31.148438 74.105469 27.667969 74.105469 24.589844 C 74.105469 21.339844 73.363281 18.542969 72.25 16.191406 C 70.582031 12.660156 68.097656 10.132812 66.03125 8.484375 C 63.96875 6.835938 62.316406 6.0625 62.28125 6.042969 L 62.25 6.03125 L 61.984375 6.6875 L 61.6875 7.332031 L 61.703125 7.300781 L 61.6875 7.332031 L 61.703125 7.300781 L 61.6875 7.332031 C 61.730469 7.347656 64.515625 8.679688 67.257812 11.496094 C 68.628906 12.90625 69.992188 14.683594 71.003906 16.851562 C 72.023438 19.023438 72.695312 21.582031 72.699219 24.589844 C 72.695312 27.460938 72.078125 30.746094 70.523438 34.480469 C 68.964844 38.21875 66.46875 42.402344 62.71875 47.058594 L 63.265625 47.503906 L 62.738281 47.035156 L 62.707031 47.070312 C 62.363281 47.460938 59.332031 50.871094 54.691406 55.332031 C 50.050781 59.796875 43.804688 65.3125 37.039062 69.910156 L 37.429688 70.496094 L 37.824219 69.910156 C 30.839844 65.164062 24.40625 59.4375 19.726562 54.902344 C 17.382812 52.636719 15.480469 50.667969 14.164062 49.265625 C 13.507812 48.566406 12.996094 48.003906 12.648438 47.621094 C 12.476562 47.429688 12.34375 47.285156 12.253906 47.183594 C 12.210938 47.132812 12.175781 47.097656 12.15625 47.070312 L 12.121094 47.035156 L 11.597656 47.503906 L 12.140625 47.058594 C 8.390625 42.402344 5.894531 38.21875 4.335938 34.484375 C 2.78125 30.746094 2.164062 27.460938 2.164062 24.589844 C 2.164062 21.558594 2.847656 18.984375 3.878906 16.800781 C 5.421875 13.53125 7.75 11.152344 9.699219 9.597656 C 10.675781 8.820312 11.550781 8.25 12.179688 7.875 C 12.492188 7.6875 12.746094 7.550781 12.917969 7.460938 C 13.003906 7.414062 13.070312 7.382812 13.113281 7.359375 L 13.160156 7.335938 L 13.171875 7.332031 L 13.085938 7.144531 L 13.171875 7.332031 L 13.085938 7.144531 L 13.171875 7.332031 L 12.875 6.6875 L 13.140625 7.34375 C 16.078125 6.136719 18.777344 5.660156 21.226562 5.660156 C 23.671875 5.660156 25.867188 6.136719 27.792969 6.855469 C 30.683594 7.933594 32.96875 9.558594 34.519531 10.914062 C 35.296875 11.589844 35.890625 12.199219 36.289062 12.636719 C 36.484375 12.855469 36.632812 13.027344 36.734375 13.148438 C 36.78125 13.207031 36.820312 13.25 36.84375 13.28125 L 36.867188 13.3125 L 36.871094 13.320312 L 36.875 13.320312 L 37.082031 13.15625 L 36.875 13.320312 L 37.082031 13.15625 L 36.875 13.320312 C 37.007812 13.496094 37.210938 13.597656 37.429688 13.597656 C 37.648438 13.597656 37.855469 13.496094 37.988281 13.320312 L 37.878906 13.238281 L 37.988281 13.320312 L 37.878906 13.238281 L 37.988281 13.320312 C 38.003906 13.296875 39.496094 11.363281 42.195312 9.453125 C 43.546875 8.5 45.195312 7.550781 47.109375 6.839844 C 49.027344 6.132812 51.207031 5.660156 53.636719 5.660156 C 56.082031 5.660156 58.78125 6.136719 61.71875 7.34375 L 61.984375 6.6875 L 61.6875 7.332031 L 61.984375 6.6875 "/>
</g>
</g>
</svg>
