<?xml version="1.0" encoding="UTF-8"?>
<svg xmlns="http://www.w3.org/2000/svg" xmlns:xlink="http://www.w3.org/1999/xlink" width="75pt" height="74.999997pt" viewBox="0 0 75 74.999997" version="1.2">
<defs>
<clipPath id="clip1">
  <path d="M 8.925781 7.5 L 65.925781 7.5 L 65.925781 67.5 L 8.925781 67.5 Z M 8.925781 7.5 "/>
</clipPath>
</defs>
<g id="surface1">
<g clip-path="url(#clip1)" clip-rule="nonzero">
<path style=" stroke:none;fill-rule:nonzero;fill:rgb(65.489197%,9.799194%,46.269226%);fill-opacity:1;" d="M 37.425781 7.5 C 27.980469 7.5 20.324219 15.175781 20.324219 24.644531 C 20.324219 36.886719 37.425781 56.070312 37.425781 56.070312 C 37.425781 56.070312 54.523438 36.886719 54.523438 24.644531 C 54.523438 15.175781 46.871094 7.5 37.425781 7.5 Z M 37.425781 18.523438 C 40.800781 18.523438 43.53125 21.261719 43.53125 24.644531 C 43.53125 28.023438 40.796875 30.765625 37.425781 30.765625 C 34.054688 30.765625 31.320312 28.027344 31.320312 24.644531 C 31.320312 21.261719 34.050781 18.523438 37.425781 18.523438 Z M 16.90625 47.5 L 8.925781 67.5 L 65.925781 67.5 L 57.941406 47.5 L 51.140625 47.5 C 49.757812 49.589844 48.371094 51.523438 47.09375 53.214844 L 54.089844 53.214844 L 57.507812 61.785156 L 17.339844 61.785156 L 20.757812 53.214844 L 27.757812 53.214844 C 26.480469 51.523438 25.089844 49.589844 23.710938 47.5 Z M 16.90625 47.5 "/>
</g>
</g>
</svg>
