<?xml version="1.0" encoding="UTF-8"?>
<svg xmlns="http://www.w3.org/2000/svg" xmlns:xlink="http://www.w3.org/1999/xlink" width="112.5pt" height="112.499997pt" viewBox="0 0 112.5 112.499997" version="1.2">
<defs>
<clipPath id="clip1">
  <path d="M 1.007812 16.820312 L 111.257812 16.820312 L 111.257812 95.570312 L 1.007812 95.570312 Z M 1.007812 16.820312 "/>
</clipPath>
</defs>
<g id="surface1">
<g clip-path="url(#clip1)" clip-rule="nonzero">
<path style=" stroke:none;fill-rule:nonzero;fill:rgb(64.709473%,10.5896%,46.669006%);fill-opacity:1;" d="M 106.894531 19.578125 L 106.578125 19.304688 C 105.554688 18.507812 104.429688 17.894531 103.203125 17.472656 C 101.976562 17.046875 100.714844 16.832031 99.417969 16.820312 L 12.851562 16.820312 C 11.550781 16.820312 10.285156 17.035156 9.054688 17.46875 C 7.828125 17.902344 6.703125 18.527344 5.691406 19.34375 L 5.492188 19.34375 C 4.796875 19.898438 4.171875 20.523438 3.613281 21.222656 C 3.058594 21.921875 2.589844 22.671875 2.203125 23.476562 C 1.820312 24.28125 1.527344 25.121094 1.332031 25.992188 C 1.136719 26.859375 1.042969 27.742188 1.046875 28.632812 L 1.046875 83.757812 C 1.046875 84.535156 1.121094 85.304688 1.273438 86.0625 C 1.425781 86.824219 1.648438 87.5625 1.945312 88.28125 C 2.242188 88.996094 2.605469 89.675781 3.035156 90.324219 C 3.46875 90.96875 3.957031 91.5625 4.503906 92.113281 C 5.050781 92.660156 5.648438 93.152344 6.292969 93.582031 C 6.9375 94.011719 7.617188 94.375 8.335938 94.671875 C 9.050781 94.96875 9.789062 95.195312 10.546875 95.34375 C 11.308594 95.496094 12.078125 95.570312 12.851562 95.570312 L 99.417969 95.570312 C 100.191406 95.570312 100.960938 95.496094 101.71875 95.34375 C 102.480469 95.195312 103.21875 94.96875 103.933594 94.671875 C 104.652344 94.375 105.332031 94.011719 105.976562 93.582031 C 106.621094 93.152344 107.214844 92.660156 107.765625 92.113281 C 108.3125 91.5625 108.800781 90.96875 109.234375 90.324219 C 109.664062 89.675781 110.027344 88.996094 110.324219 88.28125 C 110.621094 87.5625 110.84375 86.824219 110.996094 86.0625 C 111.148438 85.304688 111.222656 84.535156 111.222656 83.757812 L 111.222656 28.632812 C 111.210938 26.878906 110.824219 25.207031 110.066406 23.625 C 109.308594 22.039062 108.253906 20.691406 106.894531 19.578125 Z M 8.917969 28.632812 C 8.898438 28.53125 8.898438 28.425781 8.917969 28.320312 L 38.46875 48.835938 L 8.917969 81.4375 Z M 56.132812 51.394531 L 17.574219 24.695312 L 94.695312 24.695312 Z M 45.078125 53.324219 L 53.890625 59.425781 C 54.222656 59.65625 54.578125 59.828125 54.960938 59.949219 C 55.34375 60.066406 55.734375 60.128906 56.132812 60.128906 C 56.535156 60.128906 56.925781 60.066406 57.308594 59.949219 C 57.691406 59.828125 58.046875 59.65625 58.378906 59.425781 L 66.914062 53.519531 L 98.394531 87.695312 L 13.875 87.695312 Z M 73.449219 48.992188 L 103.351562 28.320312 C 103.371094 28.425781 103.371094 28.53125 103.351562 28.632812 L 103.351562 81.515625 Z M 73.449219 48.992188 "/>
</g>
</g>
</svg>
