<?xml version="1.0" encoding="UTF-8"?>
<svg xmlns="http://www.w3.org/2000/svg" xmlns:xlink="http://www.w3.org/1999/xlink" width="75pt" height="74.999997pt" viewBox="0 0 75 74.999997" version="1.2">
<defs>
<clipPath id="clip1">
  <path d="M 21.449219 7.5 L 53.699219 7.5 L 53.699219 67.5 L 21.449219 67.5 Z M 21.449219 7.5 "/>
</clipPath>
</defs>
<g id="surface1">
<g clip-path="url(#clip1)" clip-rule="nonzero">
<path style=" stroke:none;fill-rule:nonzero;fill:rgb(65.489197%,9.799194%,46.269226%);fill-opacity:1;" d="M 51.859375 60.539062 L 23.28125 60.539062 L 23.28125 13.691406 L 51.859375 13.691406 Z M 38.722656 66.570312 L 36.417969 66.570312 C 35.167969 66.570312 34.152344 65.4375 34.152344 64.042969 C 34.152344 62.648438 35.167969 61.519531 36.417969 61.519531 L 38.722656 61.519531 C 39.972656 61.519531 40.988281 62.648438 40.988281 64.042969 C 40.988281 65.4375 39.972656 66.570312 38.722656 66.570312 Z M 44.273438 9.128906 L 45.839844 9.128906 C 46.488281 9.128906 47.015625 9.714844 47.015625 10.441406 C 47.015625 11.167969 46.488281 11.753906 45.839844 11.753906 L 44.273438 11.753906 C 43.625 11.753906 43.097656 11.167969 43.097656 10.441406 C 43.097656 9.714844 43.625 9.128906 44.273438 9.128906 Z M 50.007812 7.496094 L 25.132812 7.496094 C 23.097656 7.496094 21.449219 9.800781 21.449219 12.640625 L 21.449219 62.359375 C 21.449219 65.199219 23.097656 67.5 25.132812 67.5 L 50.007812 67.5 C 52.042969 67.5 53.691406 65.199219 53.691406 62.359375 L 53.691406 12.640625 C 53.691406 9.800781 52.042969 7.496094 50.007812 7.496094 "/>
</g>
<path style=" stroke:none;fill-rule:nonzero;fill:rgb(65.489197%,9.799194%,46.269226%);fill-opacity:1;" d="M 40.3125 64.042969 C 40.3125 65.164062 39.5 66.074219 38.496094 66.074219 L 36.644531 66.074219 C 35.640625 66.074219 34.828125 65.164062 34.828125 64.042969 C 34.828125 62.921875 35.640625 62.015625 36.644531 62.015625 L 38.496094 62.015625 C 39.5 62.015625 40.3125 62.921875 40.3125 64.042969 "/>
</g>
</svg>
